PathFileType	4	(X/Y/Z)	Kaydara	
DataRate	CameraRate	NumFrames	NumMarkers	Units	OrigDataRate	OrigDataStartFrame	OrigNumFrames	
120.00	120.00	4	72	mm	120.00	235	268	
Frame#	Time	Hips			RightUpLeg			RightLeg			RightFoot			RightFoot_End			LeftUpLeg			LeftLeg			LeftFoot			LeftFoot_End			Spine			Spine1			Spine2			Spine3			Neck			Head			Head_End			RightShoulder			RightArm			RightForeArm			RightHand			RightHandThumb1			RightHandThumb2			RightHandThumb3			RightHandThumb3_End			RightInHandIndex			RightHandIndex1			RightHandIndex2			RightHandIndex3			RightHandIndex3_End			RightInHandMiddle			RightHandMiddle1			RightHandMiddle2			RightHandMiddle3			RightHandMiddle3_End			RightInHandRing			RightHandRing1			RightHandRing2			RightHandRing3			RightHandRing3_End			RightInHandPinky			RightHandPinky1			RightHandPinky2			RightHandPinky3			RightHandPinky3_End			LeftShoulder			LeftArm			LeftForeArm			LeftHand			LeftHandThumb1			LeftHandThumb2			LeftHandThumb3			LeftHandThumb3_End			LeftInHandIndex			LeftHandIndex1			LeftHandIndex2			LeftHandIndex3			LeftHandIndex3_End			LeftInHandMiddle			LeftHandMiddle1			LeftHandMiddle2			LeftHandMiddle3			LeftHandMiddle3_End			LeftInHandRing			LeftHandRing1			LeftHandRing2			LeftHandRing3			LeftHandRing3_End			LeftInHandPinky			LeftHandPinky1			LeftHandPinky2			LeftHandPinky3			LeftHandPinky3_End			
		X1	Y1	Z1	X2	Y2	Z2	X3	Y3	Z3	X4	Y4	Z4	X5	Y5	Z5	X6	Y6	Z6	X7	Y7	Z7	X8	Y8	Z8	X9	Y9	Z9	X10	Y10	Z10	X11	Y11	Z11	X12	Y12	Z12	X13	Y13	Z13	X14	Y14	Z14	X15	Y15	Z15	X16	Y16	Z16	X17	Y17	Z17	X18	Y18	Z18	X19	Y19	Z19	X20	Y20	Z20	X21	Y21	Z21	X22	Y22	Z22	X23	Y23	Z23	X24	Y24	Z24	X25	Y25	Z25	X26	Y26	Z26	X27	Y27	Z27	X28	Y28	Z28	X29	Y29	Z29	X30	Y30	Z30	X31	Y31	Z31	X32	Y32	Z32	X33	Y33	Z33	X34	Y34	Z34	X35	Y35	Z35	X36	Y36	Z36	X37	Y37	Z37	X38	Y38	Z38	X39	Y39	Z39	X40	Y40	Z40	X41	Y41	Z41	X42	Y42	Z42	X43	Y43	Z43	X44	Y44	Z44	X45	Y45	Z45	X46	Y46	Z46	X47	Y47	Z47	X48	Y48	Z48	X49	Y49	Z49	X50	Y50	Z50	X51	Y51	Z51	X52	Y52	Z52	X53	Y53	Z53	X54	Y54	Z54	X55	Y55	Z55	X56	Y56	Z56	X57	Y57	Z57	X58	Y58	Z58	X59	Y59	Z59	X60	Y60	Z60	X61	Y61	Z61	X62	Y62	Z62	X63	Y63	Z63	X64	Y64	Z64	X65	Y65	Z65	X66	Y66	Z66	X67	Y67	Z67	X68	Y68	Z68	X69	Y69	Z69	X70	Y70	Z70	X71	Y71	Z71	X72	Y72	Z72	

235	1.95	3446.805	859.65103	-201.189	3467.7545787129325	835.6754490227406	-242.11919401821666	3408.437908636536	429.4270044336275	-268.32680200164856	3505.046304377166	85.53530621577517	-438.23701752315355	3512.267897202321	-22.293837441788604	-310.4478646548731	3431.9996593787428	854.6458107716811	-146.94163760934873	3305.381284415746	467.37694567172497	-53.080466821143474	3226.3150867224495	84.61332056559422	90.1946437341887	3291.6905562092365	23.22110284334462	256.0710038095497	3418.6200641278833	987.7251081907385	-256.9016676796107	3375.0505514642978	1065.1610454825022	-295.4541259938268	3324.6825186536244	1143.050942604566	-334.8161249155613	3268.820856876863	1212.2394317657438	-371.6889372917034	3208.0023309130906	1285.6523934272045	-406.7595200848384	3163.593225264651	1359.7914011725018	-371.4896076145064	3144.041753961955	1455.7846434076585	-249.59432188543204	3229.689293803959	1260.2234336435738	-405.3965047777338	3243.4241765030833	1246.7103349007762	-433.639721101511	3320.680470116829	1117.9236872702202	-357.0449793124837	3336.5276996860944	1121.2945278205957	-385.29536073547234	3345.374194600533	1143.504194084766	-389.0842537543021	3346.567992839863	1158.8775243440177	-400.35529027850845	3347.0005037053174	1166.9459290643053	-407.60941221925964	3347.019868395292	1171.4158233532523	-413.14783492165793	3345.5589649244903	1136.246087084551	-386.3873544555397	3354.4045598878024	1148.6238921407896	-389.79736068223525	3356.2716116241936	1156.387165663588	-397.03931190288984	3354.716840934796	1161.9348447774307	-404.4342860031086	3351.598257486613	1167.013161851704	-412.5062976644059	3343.962445820663	1128.6010437404216	-384.8817255980687	3351.7278347569077	1136.5390155714185	-387.3919535135261	3353.5204536166725	1143.9603316822981	-395.0907181545025	3351.5272472678807	1150.1495594414314	-403.91477047467043	3348.0578585392855	1155.4612200491927	-412.6995115326608	3342.6514735326436	1122.8778153481617	-383.67832743697426	3348.597729931055	1125.005669278055	-384.729316186754	3349.897359348855	1130.3885105140737	-391.22807139127406	3347.835170676716	1135.781992960067	-399.62724865679525	3344.506921436983	1140.5030992412949	-407.833892460706	3340.5478793974235	1115.971277391915	-382.607312140079	3344.8510185608297	1113.6484617885367	-382.7354335280274	3345.455430631686	1116.2559402383279	-387.60520584026705	3343.740214525963	1119.3662186203774	-393.5699429689901	3340.6704711047532	1123.074269357135	-400.74666122653883	3226.742264056804	1264.2598007368356	-384.9301412463844	3225.385653049296	1247.612261843559	-348.56420475316395	3266.280554749912	1139.6841706114799	-380.6348129327333	3300.207026551065	1114.1367827523825	-340.53300754014896	3304.4162478799763	1138.3493992407825	-341.3304824323688	3316.3259932006367	1141.572891657745	-347.35697651945435	3324.908640993738	1141.0219263198355	-352.54822614892123	3332.310604050607	1138.1708703185293	-357.72662791961915	3305.2285702153117	1132.1384872814615	-344.8040096387921	3316.6107539494965	1142.3944862161884	-355.73133232866826	3327.783560010371	1141.0394956443713	-364.213254768247	3335.3962808239894	1137.017346989868	-368.3102175158749	3342.146966925002	1131.5433726695223	-370.9078634805423	3305.7721961402312	1123.7737340759127	-347.1699904908239	3317.1671637275545	1129.2550525498618	-359.107684322798	3329.397787716638	1126.6289060893075	-368.64098715805716	3338.600911898284	1121.2256286357836	-373.7171437941751	3345.9964558522947	1114.9683834179295	-376.62424970149516	3305.836948726118	1117.6723134319143	-348.5624703088606	3316.0208617882013	1117.4929777118855	-360.46911367185646	3326.703209863067	1114.0216563007818	-369.043544782257	3335.592090549741	1108.1818568885403	-374.0807183776918	3342.5513259514546	1102.0009163462666	-376.8808580930921	3305.80923305074	1109.7915839245065	-349.852665599598	3315.03958339566	1105.006829913187	-361.5715042625359	3323.5838834061474	1100.3827736705477	-368.79936198356523	3330.062759813818	1095.231023711207	-372.6484957272132	3336.224801299995	1089.2422610176814	-375.2296767994533
236	1.958	3446.805	859.65103	-201.189	3467.4254273984584	835.488774050411	-242.1032491751479	3408.834489127031	429.3014395426467	-268.83256846844495	3505.1777752611542	85.32465923592264	-438.7432868554132	3512.922402619306	-22.51615099014828	-311.14908598059804	3432.330262830075	854.8515670066355	-146.9176632684859	3305.9121067999545	467.5282683936486	-52.97377902100866	3226.7493080258405	84.65830723628774	89.98492200320264	3292.358678559456	23.324174145745758	255.82057420182917	3418.6336847380057	987.6533110757492	-257.07665042273277	3375.1163487464696	1065.089200425351	-295.67324236657504	3324.812412978649	1142.9892670699296	-335.0687914335117	3269.024458490652	1212.1987970211283	-371.9545235967013	3208.3008582476064	1285.6539666801098	-407.03526637253276	3163.9102297819913	1359.8875851278576	-371.9875853448307	3144.4837548224523	1455.9555439532046	-250.1607816444657	3229.941403402989	1260.1838214288452	-405.6261127128465	3243.437599656618	1246.456037401691	-433.731006193978	3320.832876464048	1118.54567047698	-357.0281395628102	3337.1449268001124	1122.464255594267	-383.64711089194685	3345.607531371146	1144.6028567657195	-387.43684425894395	3346.5649760631295	1160.1556349070795	-398.34476488128325	3346.897380749219	1168.3792884354118	-405.3167305505369	3346.8884614544	1173.004511618402	-410.5948796006431	3345.9892878974224	1137.4306767254698	-384.6618552652261	3354.7839954792053	1150.013257823834	-387.7290730754314	3356.610155012024	1158.0050478461108	-394.5892861283063	3354.978368668241	1163.701451741055	-401.7187879409823	3351.761239392027	1168.9073586198033	-409.5520843395824	3344.5696832774292	1129.8649537656477	-383.0817048990701	3352.3811330773838	1138.0455382886094	-385.21731955830995	3354.152632386777	1145.7261209633514	-392.49063127060293	3352.0777875067342	1152.0995352423981	-400.9901311035744	3348.5060536797205	1157.5531130971408	-409.5115972352921	3343.3854670860596	1124.1919053484328	-381.83559864637743	3349.4844024965046	1126.5788912818653	-382.5172798106107	3350.7895676209687	1132.1974634175126	-388.63668914865315	3348.6613467976877	1137.7737878651876	-396.71828528455313	3345.2428933622323	1142.6307861885825	-404.6752407624815	3341.4257603941173	1117.3422693133316	-380.715882660084	3345.9591937803957	1115.29014503659	-380.47915066739375	3346.6047229768137	1118.100478472488	-385.0334675936665	3344.8590891050585	1121.3509383255705	-390.76090441794344	3341.7196519141735	1125.183290400903	-397.7131849736963	3227.0235152326936	1264.2731393528504	-385.24979336133674	3225.5260411657505	1247.7934325480471	-348.5121985072261	3266.1035677153723	1140.0737018072398	-379.4720988075803	3300.8634645676348	1115.148120039109	-338.6705673337749	3304.6608194632804	1138.9669339993154	-339.40895751166994	3316.132296439985	1142.088578150968	-345.8353883792127	3324.438576369581	1141.5125831908404	-351.36600598437855	3331.634816656753	1138.6799245459538	-356.8793810176331	3305.544284941938	1132.8637816160528	-343.0689240185348	3316.4887190273153	1142.9422494362595	-354.53040814183373	3327.327295693866	1141.5739577133645	-363.5244182179808	3334.7264548484613	1137.580440282476	-367.92577420905	3341.296481566913	1132.155054569801	-370.7659409494996	3306.1801861124272	1124.6352800031689	-345.5884922247371	3317.198105380198	1130.017107370099	-358.13022661785465	3329.0775780788254	1127.3951382201624	-368.2410274305512	3338.0295529565647	1122.0353734321964	-373.6934003087833	3345.2305852813092	1115.835653615251	-376.870232189088	3306.321703436215	1118.6337964870656	-347.0749297217988	3316.2355191045453	1118.449549306641	-359.6017803261683	3326.6262503737503	1115.0011398158317	-368.6977412316784	3335.2805506613304	1109.2135460987683	-374.1074591381982	3342.0605322202387	1103.0915431644128	-377.1657842898418	3306.3919788579406	1110.8801268182856	-348.4651974989076	3315.436215532345	1106.1662744081855	-360.8116622615968	3323.7707148192376	1101.5906576134062	-368.4828060457091	3330.0899597711523	1096.4915436913834	-372.6160909023976	3336.09981285017	1090.5633674798614	-375.43312757414674
237	1.967	3446.805	859.65103	-201.189	3467.1514932640857	835.3073013676141	-242.09072715494895	3409.1484241118296	429.1830866015959	-269.30044833676703	3505.3554515311575	85.03578256232625	-439.02558876498676	3513.536275294576	-22.835357466706114	-311.64629550520766	3432.612339748359	855.0537149659609	-146.889789608066	3306.429183584057	467.6629231303219	-52.87488150359879	3227.1769787716853	84.6821428314612	89.76037784929603	3293.078003428599	23.40015755087747	255.52807665079422	3418.614706505894	987.5741821241156	-257.25355867622784	3375.134470938117	1064.9968871400285	-295.9045814662711	3324.879349273573	1142.8917766933105	-335.34628005062797	3269.1504220926204	1212.1050442261376	-372.2596244823782	3208.5053908117616	1285.5819503332275	-407.36845312522735	3164.088477501431	1359.892046938046	-372.58513146365937	3144.7936548431176	1456.0623454985764	-250.85369046029206	3230.1099423138508	1260.0720965843736	-405.90906676848994	3243.3576907953857	1246.108868376994	-433.8337899673696	3320.879545309175	1118.9082684775826	-357.05486119378065	3337.673902111951	1123.1784827517595	-382.56383453085874	3345.7847362574576	1145.431813275296	-386.1398196485072	3346.7394756511903	1161.1472224177144	-396.5610597679559	3347.136841993086	1169.480924964699	-403.2029835271461	3347.239263086128	1174.1951475843427	-408.2135875753166	3346.3556412292446	1138.2546956481794	-383.4043195149584	3355.228583941386	1151.0103554228822	-386.1200675583784	3357.206407646489	1159.1437773818195	-392.5900629819587	3355.6617521614144	1164.9290454545921	-399.41706769323827	3352.5119133767334	1170.209053304314	-406.9595846308321	3345.119743472259	1130.6752316473294	-381.85363547710483	3353.1068411152364	1139.017193916648	-383.66241745299214	3355.0679438296916	1146.8499773349326	-390.51476958237174	3353.109787817133	1153.3294766334795	-398.6516439121251	3349.6173053453617	1158.8635859680403	-406.85607422339194	3344.062785603728	1124.987857242853	-380.6387828291827	3350.4280407023484	1127.5064435912	-381.058978619705	3351.9228342994666	1133.2550225386826	-386.81693005181893	3349.9201102984925	1138.9322661084027	-394.55164037240814	3346.5823063979956	1143.8643163892987	-402.211874729894	3342.251695322839	1118.1182837452707	-379.5537157264926	3347.1192494861143	1116.1739510267578	-379.10332037675784	3347.9534868713263	1119.0836790967026	-383.3778310931179	3346.317222541406	1122.4054711179226	-388.856908339549	3343.259489261996	1126.3029963594042	-395.5490244992294	3227.2111723805847	1264.2252127897732	-385.61924194206665	3225.6694884597173	1247.9623277499365	-348.62026861340684	3266.1463725584804	1140.4602192504906	-378.4865713809773	3301.860240447026	1116.164561881903	-337.4708160775659	3305.270077964091	1139.6356697477838	-338.1970314718794	3316.3312487475355	1142.6745321618291	-345.000313015787	3324.373326138943	1142.07912825003	-350.84529524366616	3331.3677338599427	1139.263002445657	-356.6651630675888	3306.1981743226224	1133.6179204498433	-342.02056903303	3316.685494566911	1143.5230006985976	-353.9989444980782	3327.189989068712	1142.1396826260714	-363.46724361364636	3334.3906109601344	1138.17710999452	-368.1439540978364	3340.8024866854507	1132.8045118509615	-371.1988696395233	3306.907796838028	1125.5044810183933	-344.6688222851127	3317.519740548219	1130.7793987211019	-357.7842901026152	3329.0458542601914	1128.1569092993361	-368.4280810670632	3337.7636698735528	1122.842097547654	-374.22007074902035	3344.79426639881	1116.7038409989577	-377.6354800236742	3307.1132745812765	1119.5878561338413	-346.2322646870823	3316.7193977031993	1119.37895266082	-359.3380300544759	3326.8142150873878	1115.9464951439998	-368.91343896844376	3335.24906287902	1110.2109747073875	-374.6586516700447	3341.87183076525	1104.1508909004958	-377.9450472585888	3307.26884101257	1111.943766740208	-347.7019908399069	3316.084008613503	1107.2719231328758	-360.6261654836666	3324.2017293338668	1102.7347879249132	-368.70194581103266	3330.3706664513043	1097.686092591914	-373.08996234486347	3336.2468706060936	1091.8199232693744	-376.11479905798
238	1.975	3446.805	859.65103	-201.189	3466.9261901184627	835.1374582342979	-242.0892503566039	3409.3528318269177	429.0724204250868	-269.72295090883847	3505.5506880411413	84.72210378491842	-439.1670547183711	3514.084996568042	-23.20068653821199	-312.0128159590031	3432.8506678954745	855.2437217776006	-146.8540107211724	3306.9088528676666	467.7816979349635	-52.78219281424568	3227.575165874877	84.68755333800208	89.5296424753553	3293.810238670185	23.43981677484614	255.20127789513595	3418.5714294630934	987.4965318718498	-257.41612015615266	3375.113782359443	1064.897752034163	-296.1237260886761	3324.8920208373042	1142.7770951142809	-335.61613381514513	3269.2061510545977	1211.9819088743593	-372.56471504459216	3208.6210319075576	1285.4648305001829	-407.7112114235587	3164.140505346213	1359.8311078960012	-373.21044013262446	3144.9775791478223	1456.1272595796736	-251.59723372895343	3230.1935536923584	1259.9136869757228	-406.20206580136835	3243.1796651796117	1245.7003551643074	-433.91564569928136	3320.787128853234	1119.0225546662498	-357.06543887320265	3337.983057153665	1123.4746662507364	-381.9104309547394	3345.7910034501238	1145.9848002799627	-385.10995490877883	3346.930662966435	1161.8381132719726	-394.9726171698073	3347.5201038177615	1170.2382242324975	-401.2640918608207	3347.8367969892774	1174.9824630709463	-406.01551363637515	3346.5282121303067	1138.731274811817	-382.5037178759378	3355.5692764276814	1151.6257182909603	-384.87359681283084	3357.83932910001	1159.822394950426	-390.9659699565605	3356.5079315458543	1165.6420615850154	-397.47848539387894	3353.555908449112	1170.9472184875888	-404.70692556262674	3345.4669461402627	1131.064812710906	-381.0633949377323	3353.712433214163	1139.4950933507266	-382.5945607335152	3356.015131882795	1147.3849293202284	-389.0503640219558	3354.325164625009	1153.9001851775108	-396.81526299802647	3351.0544273205846	1159.4590190302863	-404.67965449616446	3344.527743903767	1125.312605347691	-379.9369120769913	3351.2228893099564	1127.854566868257	-380.1896233160437	3353.038244658291	1133.6404964280077	-385.61821691340094	3351.306331537757	1139.345657389586	-393.00277077673445	3348.1827687483533	1144.2978396473284	-400.3473791642677	3342.8579954525444	1118.3629300774412	-378.9513204942935	3348.1108454552423	1116.391277869323	-378.41380383203807	3349.2359577334937	1119.311502548985	-382.45068824720465	3347.8137591485656	1122.6442669712321	-387.68699008265054	3344.9553241432623	1126.5542222940328	-394.1067818131765	3227.318780580619	1264.144247473017	-385.9921735739201	3225.8454276852817	1248.141075672939	-348.86244571947935	3266.412189773383	1140.8475403647817	-377.67681511101966	3303.059510061144	1117.142677985719	-336.8498020487585	3306.1371993905354	1140.338164094409	-337.59868867276845	3316.8474514959253	1143.3193352529813	-344.7172841735988	3324.659875786315	1142.7126418393987	-350.8215877257328	3331.4754292002854	1139.911816261344	-356.8916335786998	3307.0887558649592	1134.3816768812944	-341.55143819599493	3317.153970218306	1144.1399295098697	-353.97564844655096	3327.3586035321932	1142.7452459141598	-363.8359968422214	3334.390203964942	1138.8133163396424	-368.7343770721377	3340.673917647419	1133.4915172288188	-371.95788224238	3307.8528330315276	1126.3562308000726	-344.2961384522478	3318.0825225620815	1131.5355072628422	-357.8986049821975	3329.289975611121	1128.9128159811514	-368.9815818551054	3337.8079734226308	1123.6408289663036	-375.0464694880629	3344.7003309325446	1117.5610023599127	-378.6490015144294	3308.1076282043014	1120.5047572973472	-345.91586195953096	3317.4142041767514	1120.2644659016034	-359.5055203726305	3327.240613243217	1116.844461550771	-369.4745970685727	3335.487679548044	1111.156955997879	-375.4888141030954	3341.9828178603766	1105.154988971231	-378.95388823837067	3308.331679056381	1112.9460194780195	-347.44133587277764	3316.9144366733244	1108.29539970126	-360.8422290877481	3324.8330984831778	1103.7880813868917	-369.24809727736323	3330.872745981151	1098.7840083651809	-373.8395128089765	3336.640309397521	1092.9748454209173	-377.0267652339491
